# xmcd CD database file
#
# Track frame offsets:
#	150
#	20201
#	38910
#	55010
#	75473
#	103635
#	125869
#	149183
#	171031
#	184151
#
# Disc length: 2746 seconds
#
# Revision: 0
# Processed by: cddbd v1.5.1PL2 Copyright (c) Steve Scherf et al.
# Submitted via: CDex 1.51
#
DISCID=8f0ab80a
DTITLE=Kevin Sandbloom - From a Bird
DYEAR=2005
DGENRE=Jazz
TTITLE0=From A Bird
TTITLE1=Bounce
TTITLE2=Wired
TTITLE3=Trouble
TTITLE4=Is It A Crime
TTITLE5=Fresh
TTITLE6=Heat
TTITLE7=Replay
TTITLE8=Evil Calm
TTITLE9=One Mountain
EXTD=YEAR: 2005
EXTT0=
EXTT1=
EXTT2=
EXTT3=
EXTT4=
EXTT5=
EXTT6=
EXTT7=
EXTT8=
EXTT9=
PLAYORDER=
